<svg width="20" height="20" viewBox="0 0 20 20" fill="currentColor" xmlns="http://www.w3.org/2000/svg">
<path d="M9.99203 15.8826C11.7407 15.8826 13.1623 16.3278 13.1623 16.8831C13.1623 17.4384 11.744 17.8837 9.99203 17.8837C8.24004 17.8837 6.82176 17.4401 6.82176 16.8831C6.82176 16.3262 8.23837 15.8826 9.99203 15.8826ZM3.06751 6.97257C3.15208 6.97151 3.23618 6.95974 3.31779 6.93755L6.19272 16.7047C6.51308 17.7953 8.10155 18.6208 10.012 18.6208C11.9225 18.6208 13.516 17.787 13.8314 16.7047L16.703 6.94589C16.907 6.99112 17.1201 6.97193 17.3128 6.89096C17.5055 6.81 17.6683 6.67125 17.7787 6.49387C17.8891 6.31649 17.9417 6.10923 17.9292 5.9007C17.9168 5.69217 17.8398 5.49266 17.709 5.32969C17.5783 5.16673 17.4001 5.04835 17.1991 4.99091C16.9982 4.93347 16.7843 4.93979 16.5871 5.009C16.3899 5.07822 16.219 5.20691 16.0981 5.37731C15.9772 5.54772 15.9122 5.75143 15.9121 5.96033C15.911 6.15098 15.9645 6.33797 16.0662 6.49928C16.1678 6.66058 16.3135 6.7895 16.4861 6.87084L13.1489 14.0048L13.6929 4.38445H13.7163C13.9694 4.38403 14.213 4.28777 14.398 4.11505C14.583 3.94233 14.6957 3.70597 14.7133 3.45357C14.7309 3.20117 14.6522 2.95147 14.493 2.75473C14.3338 2.55799 14.106 2.42884 13.8553 2.39326C13.6047 2.35769 13.3499 2.41834 13.1422 2.563C12.9345 2.70767 12.7893 2.9256 12.736 3.17293C12.6826 3.42026 12.7249 3.67861 12.8545 3.89598C12.9841 4.11334 13.1912 4.27358 13.4343 4.34442L11.2184 13.7397L10.1589 3.39389C10.4127 3.35802 10.6434 3.22732 10.8046 3.02814C10.9657 2.82896 11.0454 2.57611 11.0274 2.32058C11.0094 2.06505 10.8951 1.82584 10.7076 1.65118C10.5201 1.47651 10.2734 1.37939 10.0171 1.37939C9.76074 1.37939 9.51397 1.47651 9.32648 1.65118C9.13899 1.82584 9.02473 2.06505 9.00674 2.32058C8.98875 2.57611 9.06836 2.82896 9.22954 3.02814C9.39071 3.22732 9.62144 3.35802 9.87523 3.39389L8.80902 13.733L6.59818 4.35776C6.84463 4.29866 7.05947 4.14833 7.19937 3.93712C7.33927 3.7259 7.39381 3.46952 7.35198 3.21969C7.31015 2.96986 7.17507 2.74519 6.97399 2.591C6.77291 2.43681 6.5208 2.36458 6.26852 2.38888C6.01624 2.41318 5.78258 2.5322 5.61467 2.72194C5.44676 2.91168 5.3571 3.158 5.36378 3.41121C5.37047 3.66442 5.473 3.90568 5.65068 4.0863C5.82837 4.26693 6.06799 4.37347 6.3212 4.38445H6.33455L6.87015 13.9932L3.53303 6.85083C3.75006 6.73771 3.9181 6.54906 4.0054 6.32052C4.09269 6.09198 4.09319 5.8394 4.0068 5.61052C3.92042 5.38164 3.75312 5.19232 3.53655 5.07834C3.31998 4.96437 3.06913 4.93363 2.83142 4.99196C2.59371 5.05028 2.38562 5.19361 2.24647 5.39486C2.10733 5.59611 2.04677 5.84133 2.07625 6.08418C2.10573 6.32702 2.2232 6.55066 2.40647 6.71281C2.58973 6.87497 2.82608 6.96441 3.07084 6.96423" fill="currentColor"/>
</svg>
