<svg width="20" height="20" viewBox="0 0 20 20" fill="none" xmlns="http://www.w3.org/2000/svg">
<path d="M9.48038 3.71574L9.99967 4.21408L10.519 3.71574C11.3582 2.9104 12.4955 2.41663 13.7497 2.41663C16.327 2.41663 18.4163 4.50596 18.4163 7.08329C18.4163 10.1019 16.2081 12.9017 13.6802 15.0013C12.8765 15.6688 12.3526 16.0995 11.8183 16.3812C11.3215 16.6432 10.7967 16.7835 9.99967 16.7835C9.20264 16.7835 8.67783 16.6432 8.18101 16.3812C7.64673 16.0995 7.1228 15.6688 6.31917 15.0013C3.79129 12.9017 1.58301 10.1019 1.58301 7.08329C1.58301 4.50596 3.67235 2.41663 6.24967 2.41663C7.50388 2.41663 8.64118 2.9104 9.48038 3.71574Z" stroke="black" stroke-width="1.5"/>
</svg>
