<svg width="24" height="25" viewBox="0 0 24 25" fill="none" xmlns="http://www.w3.org/2000/svg">
<path fill-rule="evenodd" clip-rule="evenodd" d="M2.25 17.0688C2.25 16.6546 2.58579 16.3188 3 16.3188H12.5C12.9142 16.3188 13.25 16.6546 13.25 17.0688C13.25 17.483 12.9142 17.8188 12.5 17.8188H3C2.58579 17.8188 2.25 17.483 2.25 17.0688Z" fill="#808080"/>
<path fill-rule="evenodd" clip-rule="evenodd" d="M20.9944 17.0687C20.9944 18.6592 19.705 19.9487 18.1144 19.9487C16.5238 19.9487 15.2344 18.6592 15.2344 17.0687C15.2344 15.4769 16.5238 14.1887 18.1144 14.1887C19.705 14.1887 20.9944 15.4769 20.9944 17.0687Z" fill="#808080"/>
<path fill-rule="evenodd" clip-rule="evenodd" d="M10.75 7.30869C10.75 6.89448 11.0858 6.55869 11.5 6.55869H20.9951C21.4093 6.55869 21.7451 6.89448 21.7451 7.30869C21.7451 7.72291 21.4093 8.05869 20.9951 8.05869H11.5C11.0858 8.05869 10.75 7.72291 10.75 7.30869Z" fill="#808080"/>
<path fill-rule="evenodd" clip-rule="evenodd" d="M3 7.30871C3 8.90048 4.28941 10.1887 5.88 10.1887C7.47059 10.1887 8.76 8.90048 8.76 7.30871C8.76 5.71812 7.47059 4.42871 5.88 4.42871C4.28941 4.42871 3 5.71812 3 7.30871Z" fill="#808080"/>
</svg>
