<svg width="29" height="28" viewBox="0 0 29 28" fill="none" xmlns="http://www.w3.org/2000/svg">
<circle cx="14.0414" cy="8.84254" r="5.22693" stroke="currentColor" stroke-width="1.5" stroke-linecap="round" stroke-linejoin="round"/>
<path fill-rule="evenodd" clip-rule="evenodd" d="M5.75099 21.3391C5.74959 20.9717 5.83177 20.6087 5.99131 20.2777C6.49198 19.2764 7.90385 18.7457 9.07541 18.5054C9.92033 18.3251 10.7769 18.2046 11.6388 18.1449C13.2345 18.0047 14.8395 18.0047 16.4352 18.1449C17.297 18.2053 18.1535 18.3257 18.9986 18.5054C20.1701 18.7457 21.582 19.2263 22.0827 20.2777C22.4035 20.9525 22.4035 21.7358 22.0827 22.4106C21.582 23.4619 20.1701 23.9426 18.9986 24.1729C18.1546 24.3607 17.2977 24.4845 16.4352 24.5434C15.1364 24.6535 13.8315 24.6736 12.53 24.6035C12.2296 24.6035 11.9392 24.6035 11.6388 24.5434C10.7795 24.4852 9.92584 24.3614 9.08542 24.1729C7.90385 23.9426 6.50199 23.4619 5.99131 22.4106C5.83258 22.0757 5.75049 21.7097 5.75099 21.3391Z" stroke="currentColor" stroke-width="1.5" stroke-linecap="round" stroke-linejoin="round"/>
</svg>
