<svg width="29" height="28" viewBox="0 0 29 28" fill="none" xmlns="http://www.w3.org/2000/svg">
<path d="M13.8802 5.52745L14.3995 6.0258L14.9188 5.52745C16.07 4.42268 17.631 3.74487 19.3518 3.74487C22.8882 3.74487 25.755 6.61172 25.755 10.1482C25.755 12.4411 24.8218 14.6333 23.3868 16.6262C21.9524 18.6182 20.0465 20.3681 18.1844 21.757C16.4487 23.0517 15.7781 23.5281 14.3995 23.5281C13.0209 23.5281 12.3503 23.0517 10.6146 21.757C8.75249 20.3681 6.84664 18.6182 5.41224 16.6262C3.97718 14.6333 3.04395 12.4411 3.04395 10.1482C3.04395 6.61172 5.91079 3.74487 9.44722 3.74487C11.168 3.74487 12.729 4.42268 13.8802 5.52745Z" stroke="currentColor" stroke-width="1.5"/>
</svg>
