<svg width="29" height="28" viewBox="0 0 29 28" fill="none" xmlns="http://www.w3.org/2000/svg">
<path d="M10.7998 6.9036C11.9765 6.22292 13.3427 5.83335 14.7998 5.83335C16.257 5.83335 17.6231 6.22292 18.7998 6.9036M10.7998 6.9036C8.4086 8.28684 6.7998 10.8722 6.7998 13.8333C6.7998 16.7945 8.4086 19.3799 10.7998 20.7631M10.7998 6.9036V5.83335V4.11906C10.7998 2.6463 11.9937 1.45239 13.4665 1.45239H16.1331C17.6059 1.45239 18.7998 2.6463 18.7998 4.11906V5.83335V6.9036M18.7998 6.9036C21.191 8.28684 22.7998 10.8722 22.7998 13.8333C22.7998 16.7945 21.191 19.3799 18.7998 20.7631M10.7998 20.7631C11.9765 21.4438 13.3427 21.8333 14.7998 21.8333C16.257 21.8333 17.6231 21.4438 18.7998 20.7631M10.7998 20.7631V21.8333V23.5476C10.7998 25.0204 11.9937 26.2143 13.4665 26.2143H16.1331C17.6059 26.2143 18.7998 25.0204 18.7998 23.5476V21.8333V20.7631" stroke="currentColor" stroke-width="1.5"/>
<path d="M14.7998 17V11M11.7998 14L17.7998 14" stroke="currentColor" stroke-width="1.5" stroke-linecap="round"/>
</svg>
