<svg width="29" height="28" viewBox="0 0 29 28" fill="none" xmlns="http://www.w3.org/2000/svg">
<path d="M24.7917 12.9092C24.7917 17.8932 20.2763 22.0646 14.5358 22.0646C13.4933 22.0646 12.4886 21.9258 11.543 21.6685L11.5279 21.6644C10.9634 21.5108 10.5203 21.3902 10.1805 21.3103C9.85644 21.2341 9.54378 21.1733 9.27538 21.1842C9.00492 21.1952 8.68858 21.2852 8.36086 21.3916C8.01477 21.5039 7.56185 21.6677 6.98262 21.8771L6.96819 21.8824C6.15863 22.1751 5.30957 22.3578 4.44381 22.4224C4.84836 21.6017 5.18392 20.7513 5.44823 19.8801C5.45647 19.853 5.46464 19.8261 5.47274 19.7995C5.6337 19.2705 5.76321 18.8448 5.73172 18.3463C5.7129 18.0485 5.61982 17.7527 5.50347 17.4514C5.38723 17.1504 5.22116 16.7793 5.01596 16.3208L5.00725 16.3013C4.53757 15.2517 4.27988 14.1076 4.27988 12.9092C4.27988 7.92526 8.79533 3.75391 14.5358 3.75391C20.2763 3.75391 24.7917 7.92527 24.7917 12.9092Z" stroke="currentColor" stroke-width="1.5"/>
</svg>
